<mxfile host="app.diagrams.net" agent="Mozilla/5.0 (Windows NT 10.0; Win64; x64) AppleWebKit/537.36 (KHTML, like Gecko) Chrome/131.0.0.0 Safari/537.36 Edg/131.0.0.0" version="25.0.1">
  <diagram name="第 1 页" id="HiprfOEvV31N5aknnib_">
    <mxGraphModel dx="1424" dy="730" grid="1" gridSize="10" guides="1" tooltips="1" connect="1" arrows="1" fold="1" page="1" pageScale="1" pageWidth="827" pageHeight="1169" math="0" shadow="0">
      <root>
        <mxCell id="0" />
        <mxCell id="1" parent="0" />
        <mxCell id="JbvPmNKnsWP4VNgEZnqz-1" value="" style="edgeStyle=orthogonalEdgeStyle;rounded=0;orthogonalLoop=1;jettySize=auto;html=1;" edge="1" parent="1" source="3JvH8Lyk-La8EToQ8ScC-1" target="3JvH8Lyk-La8EToQ8ScC-2">
          <mxGeometry relative="1" as="geometry" />
        </mxCell>
        <mxCell id="3JvH8Lyk-La8EToQ8ScC-1" value="开始" style="rounded=1;whiteSpace=wrap;html=1;" parent="1" vertex="1">
          <mxGeometry x="240" y="80" width="120" height="60" as="geometry" />
        </mxCell>
        <mxCell id="JbvPmNKnsWP4VNgEZnqz-2" value="" style="edgeStyle=orthogonalEdgeStyle;rounded=0;orthogonalLoop=1;jettySize=auto;html=1;" edge="1" parent="1" source="3JvH8Lyk-La8EToQ8ScC-2" target="3JvH8Lyk-La8EToQ8ScC-3">
          <mxGeometry relative="1" as="geometry" />
        </mxCell>
        <mxCell id="3JvH8Lyk-La8EToQ8ScC-2" value="段落分割" style="rounded=0;whiteSpace=wrap;html=1;" parent="1" vertex="1">
          <mxGeometry x="400" y="80" width="120" height="60" as="geometry" />
        </mxCell>
        <mxCell id="JbvPmNKnsWP4VNgEZnqz-3" value="" style="edgeStyle=orthogonalEdgeStyle;rounded=0;orthogonalLoop=1;jettySize=auto;html=1;" edge="1" parent="1" source="3JvH8Lyk-La8EToQ8ScC-3" target="3JvH8Lyk-La8EToQ8ScC-4">
          <mxGeometry relative="1" as="geometry" />
        </mxCell>
        <mxCell id="3JvH8Lyk-La8EToQ8ScC-3" value="段落分配" style="rounded=0;whiteSpace=wrap;html=1;" parent="1" vertex="1">
          <mxGeometry x="560" y="80" width="120" height="60" as="geometry" />
        </mxCell>
        <mxCell id="JbvPmNKnsWP4VNgEZnqz-4" value="" style="edgeStyle=orthogonalEdgeStyle;rounded=0;orthogonalLoop=1;jettySize=auto;html=1;" edge="1" parent="1" source="3JvH8Lyk-La8EToQ8ScC-4" target="3JvH8Lyk-La8EToQ8ScC-5">
          <mxGeometry relative="1" as="geometry" />
        </mxCell>
        <mxCell id="3JvH8Lyk-La8EToQ8ScC-4" value="文本转语音" style="rounded=0;whiteSpace=wrap;html=1;" parent="1" vertex="1">
          <mxGeometry x="720" y="80" width="120" height="60" as="geometry" />
        </mxCell>
        <mxCell id="JbvPmNKnsWP4VNgEZnqz-5" value="" style="edgeStyle=orthogonalEdgeStyle;rounded=0;orthogonalLoop=1;jettySize=auto;html=1;" edge="1" parent="1" source="3JvH8Lyk-La8EToQ8ScC-5" target="3JvH8Lyk-La8EToQ8ScC-6">
          <mxGeometry relative="1" as="geometry" />
        </mxCell>
        <mxCell id="3JvH8Lyk-La8EToQ8ScC-5" value="语音转视频" style="rounded=0;whiteSpace=wrap;html=1;" parent="1" vertex="1">
          <mxGeometry x="880" y="80" width="120" height="60" as="geometry" />
        </mxCell>
        <mxCell id="JbvPmNKnsWP4VNgEZnqz-6" value="" style="edgeStyle=orthogonalEdgeStyle;rounded=0;orthogonalLoop=1;jettySize=auto;html=1;" edge="1" parent="1" source="3JvH8Lyk-La8EToQ8ScC-6" target="3JvH8Lyk-La8EToQ8ScC-8">
          <mxGeometry relative="1" as="geometry" />
        </mxCell>
        <mxCell id="3JvH8Lyk-La8EToQ8ScC-6" value="视频拼接" style="rounded=0;whiteSpace=wrap;html=1;" parent="1" vertex="1">
          <mxGeometry x="1040" y="80" width="120" height="60" as="geometry" />
        </mxCell>
        <mxCell id="JbvPmNKnsWP4VNgEZnqz-7" value="" style="edgeStyle=orthogonalEdgeStyle;rounded=0;orthogonalLoop=1;jettySize=auto;html=1;" edge="1" parent="1" source="3JvH8Lyk-La8EToQ8ScC-8" target="3JvH8Lyk-La8EToQ8ScC-9">
          <mxGeometry relative="1" as="geometry" />
        </mxCell>
        <mxCell id="3JvH8Lyk-La8EToQ8ScC-8" value="输出视频" style="shape=parallelogram;perimeter=parallelogramPerimeter;whiteSpace=wrap;html=1;fixedSize=1;" parent="1" vertex="1">
          <mxGeometry x="1200" y="80" width="120" height="60" as="geometry" />
        </mxCell>
        <mxCell id="3JvH8Lyk-La8EToQ8ScC-9" value="结束" style="rounded=1;whiteSpace=wrap;html=1;" parent="1" vertex="1">
          <mxGeometry x="1360" y="80" width="120" height="60" as="geometry" />
        </mxCell>
      </root>
    </mxGraphModel>
  </diagram>
</mxfile>
